<mxfile host="app.diagrams.net" modified="2024-01-22T08:14:58.486Z" agent="Mozilla/5.0 (X11; Linux x86_64) AppleWebKit/537.36 (KHTML, like Gecko) Chrome/109.0.0.0 Safari/537.36" version="22.1.21" etag="IO_Gon8HvbzeScWZ5BXM" type="github">
  <diagram name="Halaman-1" id="CNXdGkV-k3QApEqBhi3C">
    <mxGraphModel>
      <root>
        <mxCell id="0" />
        <mxCell id="1" parent="0" />
      </root>
    </mxGraphModel>
  </diagram>
</mxfile>
